<svg width="14" height="14" viewBox="0 0 14 14" fill="none" xmlns="http://www.w3.org/2000/svg">
<path d="M9.00024 7L6.56928 9.43096C6.43911 9.56114 6.22805 9.56114 6.09788 9.43096L5.00024 8.33333M1.00024 5H13.0002M5.00024 2.33333H3.13358C2.38684 2.33333 2.01347 2.33333 1.72826 2.47866C1.47737 2.60649 1.2734 2.81046 1.14557 3.06135C1.00024 3.34656 1.00024 3.71993 1.00024 4.46667V10.8667C1.00024 11.6134 1.00024 11.9868 1.14557 12.272C1.2734 12.5229 1.47737 12.7268 1.72826 12.8547C2.01347 13 2.38684 13 3.13358 13H10.8669C11.6136 13 11.987 13 12.2722 12.8547C12.5231 12.7268 12.7271 12.5229 12.8549 12.272C13.0002 11.9868 13.0002 11.6134 13.0002 10.8667V4.46667C13.0002 3.71993 13.0002 3.34656 12.8549 3.06135C12.7271 2.81046 12.5231 2.60649 12.2722 2.47866C11.987 2.33333 11.6136 2.33333 10.8669 2.33333H9.00024M5.00024 2.33333H9.00024M5.00024 2.33333V2C5.00024 1.44772 4.55253 1 4.00024 1C3.44796 1 3.00024 1.44772 3.00024 2V2.33333M9.00024 2.33333V2C9.00024 1.44772 9.44796 1 10.0002 1C10.5525 1 11.0002 1.44772 11.0002 2V2.33333" stroke="#0C73FE" stroke-width="1.3" stroke-linecap="round"/>
</svg>
