<svg width="27" height="27" viewBox="0 0 27 27" fill="none" xmlns="http://www.w3.org/2000/svg">
<path d="M13.6097 6.42516C9.83022 6.42516 6.69863 9.50275 6.69863 13.3363C6.69863 17.1697 9.77623 20.2473 13.6097 20.2473C17.4432 20.2473 20.5208 17.1158 20.5208 13.3363C20.5208 9.55675 17.3892 6.42516 13.6097 6.42516ZM13.6097 17.7637C11.18 17.7637 9.18231 15.7659 9.18231 13.3363C9.18231 10.9066 11.18 8.90883 13.6097 8.90883C16.0394 8.90883 18.0371 10.9066 18.0371 13.3363C18.0371 15.7659 16.0394 17.7637 13.6097 17.7637Z" fill="white"/>
<path d="M20.7908 7.82897C21.6556 7.82897 22.3566 7.12794 22.3566 6.26318C22.3566 5.39841 21.6556 4.69738 20.7908 4.69738C19.926 4.69738 19.225 5.39841 19.225 6.26318C19.225 7.12794 19.926 7.82897 20.7908 7.82897Z" fill="white"/>
<path d="M24.8403 2.21371C23.4364 0.755901 21.4387 0 19.171 0H8.04846C3.35107 0 0.219482 3.13159 0.219482 7.82897V18.8975C0.219482 21.2192 0.975383 23.217 2.48719 24.6748C3.94499 26.0786 5.88874 26.7805 8.10245 26.7805H19.117C21.4387 26.7805 23.3824 26.0246 24.7863 24.6748C26.2441 23.2709 27 21.2732 27 18.9515V7.82897C27 5.56127 26.2441 3.61752 24.8403 2.21371ZM24.6243 18.9515C24.6243 20.6253 24.0304 21.9751 23.0585 22.893C22.0866 23.8109 20.7368 24.2968 19.117 24.2968H8.10245C6.48266 24.2968 5.13284 23.8109 4.16097 22.893C3.18909 21.9211 2.70316 20.5713 2.70316 18.8975V7.82897C2.70316 6.20918 3.18909 4.85936 4.16097 3.88749C5.07885 2.96961 6.48266 2.48367 8.10245 2.48367H19.225C20.8448 2.48367 22.1946 2.96961 23.1665 3.94148C24.0844 4.91336 24.6243 6.26318 24.6243 7.82897V18.9515Z" fill="white"/>
</svg>
