<svg width="13" height="16" viewBox="0 0 13 16" fill="none" xmlns="http://www.w3.org/2000/svg">
<path d="M3.3 4.5C3.3 4.77614 3.52386 5 3.8 5C4.07614 5 4.3 4.77614 4.3 4.5H3.3ZM4.3 11.5C4.3 11.2239 4.07614 11 3.8 11C3.52386 11 3.3 11.2239 3.3 11.5H4.3ZM4.56441 14.8474L4.79141 14.4019L4.79141 14.4019L4.56441 14.8474ZM3.95259 14.2356L3.50709 14.4626H3.50709L3.95259 14.2356ZM12.0474 14.2356L12.4929 14.4626L12.0474 14.2356ZM11.4356 14.8474L11.2086 14.4019L11.2086 14.4019L11.4356 14.8474ZM11.4356 1.15259L11.2086 1.59809V1.59809L11.4356 1.15259ZM12.0474 1.76441L11.6019 1.99141V1.99141L12.0474 1.76441ZM3.95259 1.76441L3.50709 1.53742L3.95259 1.76441ZM4.56441 1.15259L4.33742 0.707088V0.707088L4.56441 1.15259ZM8.7 8.5C8.97614 8.5 9.2 8.27614 9.2 8C9.2 7.72386 8.97614 7.5 8.7 7.5V8.5ZM1 7.5C0.723858 7.5 0.5 7.72386 0.5 8C0.5 8.27614 0.723858 8.5 1 8.5L1 7.5ZM6.94645 9.74645C6.75118 9.94171 6.75118 10.2583 6.94645 10.4536C7.14171 10.6488 7.45829 10.6488 7.65355 10.4536L6.94645 9.74645ZM8.60804 8.79196L8.96159 9.14551L8.60804 8.79196ZM8.60804 7.20804L8.9616 6.85449L8.96159 6.85449L8.60804 7.20804ZM7.65355 5.54645C7.45829 5.35118 7.14171 5.35118 6.94645 5.54645C6.75118 5.74171 6.75118 6.05829 6.94645 6.25355L7.65355 5.54645ZM9.07579 8.21631L8.60026 8.0618L9.07579 8.21631ZM9.07579 7.78369L8.60026 7.9382L9.07579 7.78369ZM4.3 4.5V3.24H3.3V4.5H4.3ZM6.04 1.5H9.96V0.5H6.04V1.5ZM11.7 3.24V12.76H12.7V3.24H11.7ZM9.96 14.5H6.04V15.5H9.96V14.5ZM4.3 12.76V11.5H3.3V12.76H4.3ZM6.04 14.5C5.63971 14.5 5.36957 14.4996 5.1612 14.4826C4.95867 14.466 4.85891 14.4363 4.79141 14.4019L4.33742 15.2929C4.56939 15.4111 4.81539 15.4577 5.07977 15.4793C5.3383 15.5004 5.65621 15.5 6.04 15.5V14.5ZM3.3 12.76C3.3 13.1438 3.29961 13.4617 3.32073 13.7202C3.34233 13.9846 3.38889 14.2306 3.50709 14.4626L4.39809 14.0086C4.3637 13.9411 4.33396 13.8413 4.31741 13.6388C4.30039 13.4304 4.3 13.1603 4.3 12.76H3.3ZM4.79141 14.4019C4.62206 14.3156 4.48438 14.1779 4.39809 14.0086L3.50709 14.4626C3.68925 14.8201 3.97991 15.1108 4.33742 15.2929L4.79141 14.4019ZM11.7 12.76C11.7 13.1603 11.6996 13.4304 11.6826 13.6388C11.666 13.8413 11.6363 13.9411 11.6019 14.0086L12.4929 14.4626C12.6111 14.2306 12.6577 13.9846 12.6793 13.7202C12.7004 13.4617 12.7 13.1438 12.7 12.76H11.7ZM9.96 15.5C10.3438 15.5 10.6617 15.5004 10.9202 15.4793C11.1846 15.4577 11.4306 15.4111 11.6626 15.2929L11.2086 14.4019C11.1411 14.4363 11.0413 14.466 10.8388 14.4826C10.6304 14.4996 10.3603 14.5 9.96 14.5V15.5ZM11.6019 14.0086C11.5156 14.1779 11.3779 14.3156 11.2086 14.4019L11.6626 15.2929C12.0201 15.1108 12.3108 14.8201 12.4929 14.4626L11.6019 14.0086ZM9.96 1.5C10.3603 1.5 10.6304 1.50039 10.8388 1.51741C11.0413 1.53396 11.1411 1.5637 11.2086 1.59809L11.6626 0.707088C11.4306 0.588892 11.1846 0.542335 10.9202 0.520734C10.6617 0.499611 10.3438 0.5 9.96 0.5V1.5ZM12.7 3.24C12.7 2.85621 12.7004 2.5383 12.6793 2.27977C12.6577 2.01539 12.6111 1.76939 12.4929 1.53742L11.6019 1.99141C11.6363 2.05891 11.666 2.15867 11.6826 2.3612C11.6996 2.56957 11.7 2.83971 11.7 3.24H12.7ZM11.2086 1.59809C11.3779 1.68438 11.5156 1.82206 11.6019 1.99141L12.4929 1.53742C12.3108 1.17991 12.0201 0.889247 11.6626 0.707087L11.2086 1.59809ZM4.3 3.24C4.3 2.83971 4.30039 2.56957 4.31741 2.3612C4.33396 2.15867 4.3637 2.05891 4.39809 1.99141L3.50709 1.53742C3.38889 1.76939 3.34233 2.01539 3.32073 2.27977C3.29961 2.5383 3.3 2.85621 3.3 3.24H4.3ZM6.04 0.5C5.65621 0.5 5.3383 0.499611 5.07977 0.520734C4.81539 0.542335 4.56939 0.588892 4.33742 0.707088L4.79141 1.59809C4.85891 1.5637 4.95867 1.53396 5.1612 1.51741C5.36957 1.50039 5.63971 1.5 6.04 1.5V0.5ZM4.39809 1.99141C4.48438 1.82206 4.62206 1.68438 4.79141 1.59809L4.33742 0.707088C3.97991 0.889247 3.68925 1.17991 3.50709 1.53742L4.39809 1.99141ZM8.7 7.5L1 7.5L1 8.5L8.7 8.5V7.5ZM7.65355 10.4536L8.96159 9.14551L8.25449 8.43841L6.94645 9.74645L7.65355 10.4536ZM8.96159 6.85449L7.65355 5.54645L6.94645 6.25355L8.25449 7.56159L8.96159 6.85449ZM8.96159 9.14551C9.09436 9.01274 9.21548 8.89218 9.30756 8.78371C9.40344 8.67078 9.49683 8.53851 9.55132 8.37082L8.60026 8.0618C8.60282 8.05394 8.60094 8.0709 8.54522 8.13653C8.48572 8.20663 8.39893 8.29397 8.25449 8.43841L8.96159 9.14551ZM8.25449 7.56159C8.39892 7.70603 8.48571 7.79337 8.54522 7.86347C8.60094 7.9291 8.60282 7.94606 8.60026 7.9382L9.55132 7.62918C9.49683 7.46149 9.40343 7.32923 9.30756 7.21629C9.21548 7.10783 9.09437 6.98726 8.9616 6.85449L8.25449 7.56159ZM9.55132 8.37082C9.62963 8.12981 9.62963 7.87019 9.55132 7.62918L8.60026 7.9382C8.61331 7.97837 8.61331 8.02164 8.60026 8.0618L9.55132 8.37082Z" fill="white"/>
</svg>
