<svg width="25" height="25" viewBox="0 0 25 25" fill="none" xmlns="http://www.w3.org/2000/svg">
<path fill-rule="evenodd" clip-rule="evenodd" d="M20.972 3.68334C18.6643 1.384 15.5954 0.117178 12.3256 0.115845C5.58848 0.115845 0.105137 5.57253 0.102507 12.2796C0.101564 14.4236 0.664411 16.5163 1.73409 18.361L0 24.6646L6.47963 22.973C8.26493 23.9422 10.275 24.453 12.3208 24.4537H12.3257C19.0622 24.4537 24.546 18.9964 24.5488 12.2893C24.55 9.03885 23.2797 5.98258 20.972 3.68334ZM12.3257 22.3993H12.3216C10.4986 22.3986 8.71063 21.9111 7.15079 20.9899L6.77986 20.7708L2.93475 21.7746L3.96111 18.0436L3.71953 17.661C2.7026 16.0513 2.1655 14.1907 2.1663 12.2802C2.16848 6.70564 6.72603 2.17036 12.3298 2.17036C15.0433 2.1712 17.5941 3.22431 19.5122 5.13543C21.4303 7.04655 22.486 9.58686 22.4849 12.2884C22.4827 17.8635 17.9253 22.3993 12.3257 22.3993Z" fill="white"/>
<path fill-rule="evenodd" clip-rule="evenodd" d="M17.8983 14.8268C17.5929 14.6747 16.0913 13.9394 15.8114 13.8379C15.5314 13.7365 15.3278 13.6858 15.1242 13.9901C14.9207 14.2943 14.3353 14.979 14.1572 15.1819C13.979 15.3846 13.8008 15.4102 13.4955 15.2579C13.1901 15.1057 12.206 14.7848 11.0395 13.7493C10.1315 12.9433 9.51858 11.948 9.34036 11.6436C9.16224 11.3394 9.32141 11.1749 9.47433 11.0233C9.61171 10.8871 9.77976 10.6683 9.93248 10.4908C10.0852 10.3134 10.1361 10.1865 10.2379 9.98379C10.3397 9.78089 10.2888 9.60337 10.2124 9.45128C10.1361 9.29914 9.52528 7.80306 9.2708 7.19436C9.02282 6.60176 8.77107 6.68205 8.58357 6.67262C8.40569 6.66378 8.20182 6.66195 7.99824 6.66195C7.79467 6.66195 7.46373 6.73805 7.18384 7.04227C6.90391 7.34659 6.11486 8.082 6.11486 9.57794C6.11486 11.0741 7.20925 12.5194 7.36196 12.7222C7.51463 12.9252 9.51556 15.9952 12.5793 17.3117C13.3079 17.625 13.8768 17.812 14.3203 17.952C15.052 18.1834 15.7178 18.1507 16.244 18.0724C16.8308 17.9852 18.051 17.3372 18.3055 16.6273C18.56 15.9172 18.56 15.3085 18.4836 15.1818C18.4073 15.0551 18.2037 14.979 17.8983 14.8268Z" fill="white"/>
</svg>
